<svg height="14" viewBox="0 0 12 14" width="12" xmlns="http://www.w3.org/2000/svg"><path d="m532.468764 149.968739c.289063.289063.53125.867189.53125 1.281252v9.00001c0 .414063-.335938.750001-.750001.750001h-10.500012c-.414063 0-.750001-.335938-.750001-.750001v-12.500014c0-.414063.335938-.750001.750001-.750001h7.000008c.414063 0 .992189.242187 1.281252.53125zm-3.468754-1.906252v2.937503h2.937503c-.046875-.132812-.117188-.265625-.171875-.320312l-2.445316-2.445316c-.054687-.054687-.1875-.125-.320312-.171875zm3.000003 11.937514v-8.000009h-3.250004c-.414063 0-.750001-.335938-.750001-.750001v-3.250004h-6.000007v12.000014zm-4.01563-4.632818c.195313.15625.414063.296876.656251.437501.328125-.039063.632813-.054688.914064-.054688.523438 0 1.187501.0625 1.382814.382813.054687.078125.101562.21875.015625.406251-.007813.007812-.015625.023437-.023438.03125v.007812c-.023437.140625-.140625.296875-.554688.296875-.5 0-1.257814-.226562-1.914065-.570313-1.085938.117188-2.226565.359376-3.062503.648439-.804689 1.375001-1.421877 2.046877-1.890628 2.046877-.078125 0-.148437-.015625-.21875-.054688l-.1875-.09375c-.023438-.007812-.03125-.023437-.046875-.039062-.039063-.039063-.070313-.125-.046875-.281251.078125-.359375.5-.960938 1.468752-1.468751.0625-.039063.140625-.015625.179687.046875.007813.007812.015625.023437.015625.03125.242188-.398438.523439-.906251.835939-1.539065.351563-.703125.625001-1.390626.812501-2.046877-.25-.851564-.328126-1.726565-.1875-2.24219.054687-.195313.171875-.312501.328125-.312501h.171875c.117188 0 .210938.039063.273438.117188.09375.109375.117188.28125.070313.531251-.007813.023437-.015625.046875-.03125.0625.007812.023437.007812.039062.007812.0625v.234375c-.007812.492188-.015625.960939-.109375 1.500002.273438.820313.679688 1.484377 1.140626 1.859377zm-4.500005 3.210941c.234375-.109375.570313-.445313 1.070314-1.234376-.585938.453126-.953126.968751-1.070314 1.234376zm3.109379-7.187508c-.078125.21875-.078125.593751-.015625 1.031251.023437-.125.039062-.242188.054687-.34375.015625-.132813.039063-.242188.054688-.335938.007812-.023438.015625-.039063.03125-.0625-.007813-.007813-.007813-.023438-.015625-.039063-.007813-.140625-.054688-.226563-.101563-.28125 0 .015625-.007812.023437-.007812.03125zm-.968751 5.164069c.6875-.273438 1.453126-.492189 2.218752-.632814-.078125-.0625-.15625-.117187-.226563-.179687-.382813-.335938-.726563-.804689-.992188-1.375002-.148438.476563-.367188.984376-.648439 1.539064-.117187.218751-.234375.437501-.351562.648439zm5.046881-.125001c-.039063-.039062-.242188-.1875-1.093752-.1875.382813.140625.734376.21875.968751.21875.070313 0 .109376 0 .140626-.007812 0-.007813-.007813-.015625-.015625-.023438z" fill="#409266" fill-rule="evenodd" transform="translate(-521 -147)"/></svg>