<svg height="39" viewBox="0 0 237 39" width="237" xmlns="http://www.w3.org/2000/svg"><path d="m9.152 12.194h-4.246l-1.056 3.806h-3.476l4.532-14.828h4.4l4.598 14.828h-3.608zm-3.762-2.508h3.278l-.924-3.146c-.264-.88-.528-1.98-.748-2.86h-.044c-.22.88-.44 2.002-.682 2.86zm10.5398333 6.314v-14.63c1.078-.176 2.684-.308 4.466-.308 2.2 0 3.74.33 4.796 1.166.88.704 1.364 1.738 1.364 3.102 0 1.892-1.342 3.19-2.618 3.652v.066c1.034.418 1.606 1.408 1.98 2.772.462 1.672.924 3.608 1.21 4.18h-3.432c-.242-.418-.594-1.628-1.034-3.454-.396-1.848-1.034-2.354-2.398-2.376h-1.012v5.83zm3.322-12.342v4.092h1.32c1.672 0 2.662-.836 2.662-2.134 0-1.364-.924-2.046-2.464-2.068-.814 0-1.276.066-1.518.11zm20.0658334 9.306.506 2.618c-.616.308-2.002.638-3.806.638-5.126 0-7.766-3.19-7.766-7.414 0-5.06 3.608-7.876 8.096-7.876 1.738 0 3.058.352 3.652.66l-.682 2.662c-.682-.286-1.628-.55-2.816-.55-2.662 0-4.73 1.606-4.73 4.906 0 2.97 1.76 4.84 4.752 4.84 1.012 0 2.134-.22 2.794-.484zm2.7518333-11.792h3.366v5.698h5.522v-5.698h3.344v14.828h-3.344v-6.204h-5.522v6.204h-3.366zm24.0258333 5.83v2.728h-5.456v3.52h6.094v2.75h-9.46v-14.828h9.152v2.75h-5.786v3.08zm9.5058334-6.072c4.5539999 0 7.04 3.41 7.04 7.502 0 4.862-2.9480001 7.81-7.2820001 7.81-4.3999999 0-6.974-3.322-6.974-7.546 0-4.444 2.838-7.766 7.2160001-7.766zm-.0880001 2.662c-2.2659999 0-3.586 2.156-3.586 5.038 0 2.904 1.364 4.95 3.6080001 4.95 2.2659999 0 3.5639999-2.156 3.5639999-5.038 0-2.662-1.2759999-4.95-3.586-4.95zm9.3738334 12.408v-14.828h3.366v12.012h5.896v2.816zm16.985833-15.07c4.554 0 7.04 3.41 7.04 7.502 0 4.862-2.948 7.81-7.282 7.81-4.3999997 0-6.9739997-3.322-6.9739997-7.546 0-4.444 2.838-7.766 7.2159997-7.766zm-.088 2.662c-2.2659997 0-3.5859997 2.156-3.5859997 5.038 0 2.904 1.364 4.95 3.6079997 4.95 2.266 0 3.564-2.156 3.564-5.038 0-2.662-1.276-4.95-3.586-4.95zm21.759834 3.916v7.81c-1.034.352-2.992.836-4.95.836-2.706 0-4.664-.682-6.028-2.002-1.364-1.276-2.112-3.212-2.09-5.39.022-4.928 3.608-7.744 8.47-7.744 1.914 0 3.388.374 4.114.726l-.704 2.684c-.814-.352-1.826-.638-3.454-.638-2.794 0-4.906 1.584-4.906 4.796 0 3.058 1.914 4.862 4.664 4.862.77 0 1.386-.088 1.65-.22v-3.102h-2.288v-2.618zm2.663833-6.336h3.366v14.828h-3.366zm16.699833 11.792.506 2.618c-.616.308-2.002.638-3.806.638-5.126 0-7.766-3.19-7.766-7.414 0-5.06 3.608-7.876 8.096-7.876 1.738 0 3.058.352 3.652.66l-.682 2.662c-.682-.286-1.628-.55-2.816-.55-2.662 0-4.73 1.606-4.73 4.906 0 2.97 1.76 4.84 4.752 4.84 1.012 0 2.134-.22 2.794-.484zm10.671834-.77h-4.246l-1.056 3.806h-3.476l4.532-14.828h4.4l4.598 14.828h-3.608zm-3.762-2.508h3.278l-.924-3.146c-.264-.88-.528-1.98-.748-2.86h-.044c-.22.88-.44 2.002-.682 2.86zm10.539833 6.314v-14.828h3.366v12.012h5.896v2.816zm23.477667-3.806h-4.246l-1.056 3.806h-3.476l4.532-14.828h4.4l4.598 14.828h-3.608zm-3.762-2.508h3.278l-.924-3.146c-.264-.88-.528-1.98-.748-2.86h-.044c-.22.88-.44 2.002-.682 2.86zm11.570014 6.314v-12.012h-3.982v-2.816h11.396v2.816h-4.048v12.012zm9.238013 0v-14.828h3.366v12.012h5.896v2.816zm19.116014-3.806h-4.246l-1.056 3.806h-3.476l4.532-14.828h4.4l4.598 14.828h-3.608zm-3.762-2.508h3.278l-.924-3.146c-.264-.88-.528-1.98-.748-2.86h-.044c-.22.88-.44 2.002-.682 2.86zm9.964014 5.632.682-2.772c.902.462 2.288.924 3.718.924 1.54 0 2.354-.638 2.354-1.606 0-.924-.704-1.452-2.486-2.09-2.464-.858-4.07-2.222-4.07-4.378 0-2.53 2.112-4.466 5.61-4.466 1.672 0 2.904.352 3.784.748l-.748 2.706c-.594-.286-1.65-.704-3.102-.704s-2.156.66-2.156 1.43c0 .946.836 1.364 2.75 2.09 2.618.968 3.85 2.332 3.85 4.422 0 2.486-1.914 4.598-5.984 4.598-1.694 0-3.366-.44-4.202-.902zm-220.079722 10.334c3.06 0 5.292 2.394 5.292 6.156 0 4.284-2.628 6.39-5.436 6.39-2.988 0-5.31-2.358-5.31-6.156 0-3.978 2.412-6.39 5.454-6.39zm-.054.72c-3.078 0-4.5 2.808-4.5 5.652 0 2.736 1.584 5.454 4.464 5.454s4.482-2.61 4.482-5.616c0-2.574-1.404-5.49-4.446-5.49zm7.5120139 11.628v-12.132h5.994v.72h-5.13v4.824h4.716v.72h-4.716v5.868zm13.8900278 0v-11.412h-3.96v-.72h8.784v.72h-3.96v11.412zm6.1080139-12.132h.864v5.346h6.696v-5.346h.864v12.132h-.864v-6.066h-6.696v6.066h-.864zm17.0880138 5.382v.72h-4.8419999v5.31h5.4179999v.72h-6.2819999v-12.132h5.9939999v.72h-5.1299999v4.662zm14.6820278 5.634.252.684c-.612.306-1.782.612-3.276.612-2.934 0-5.742-1.872-5.742-6.174 0-3.6 2.322-6.336 6.156-6.336 1.548 0 2.448.342 2.808.54l-.27.72c-.612-.306-1.494-.522-2.52-.522-3.276 0-5.274 2.124-5.274 5.616 0 3.294 1.872 5.418 5.13 5.418 1.026 0 2.034-.216 2.736-.558zm1.4820139 1.116v-.558l7.308-10.8v-.054h-6.714v-.72h7.812v.576l-7.326 10.782v.054h7.416v.72zm16.2960139-6.75v.72h-4.842v5.31h5.418v.72h-6.282v-12.132h5.994v.72h-5.13v4.662zm10.6980139 5.634.252.684c-.612.306-1.782.612-3.276.612-2.934 0-5.742-1.872-5.742-6.174 0-3.6 2.322-6.336 6.156-6.336 1.548 0 2.448.342 2.808.54l-.27.72c-.612-.306-1.494-.522-2.52-.522-3.276 0-5.274 2.124-5.274 5.616 0 3.294 1.872 5.418 5.13 5.418 1.026 0 2.034-.216 2.736-.558zm2.3280139-11.016h.864v5.346h6.6960002v-5.346h.864v12.132h-.864v-6.066h-6.6960002v6.066h-.864zm15.3660282 12.132v-11.952c.756-.18 1.782-.27 2.628-.27 1.584 0 2.592.342 3.276 1.026.522.486.846 1.296.846 2.142 0 1.638-.972 2.682-2.376 3.168v.036c.972.306 1.584 1.224 1.872 2.574.414 1.89.648 2.79.9 3.276h-.882c-.198-.36-.45-1.422-.774-2.952-.378-1.746-1.134-2.538-2.736-2.61h-1.89v5.562zm.864-11.358v5.094h1.926c1.872 0 3.096-1.044 3.096-2.646 0-1.854-1.368-2.61-3.276-2.61-.828 0-1.44.09-1.746.162zm13.974013 4.608v.72h-4.842v5.31h5.418v.72h-6.282v-12.132h5.994v.72h-5.13v4.662zm2.724014 6.75v-11.988c.702-.126 1.584-.234 2.61-.234 1.44 0 2.538.378 3.204 1.026.594.558.936 1.368.936 2.376 0 1.044-.288 1.818-.846 2.43-.774.882-2.07 1.35-3.564 1.35-.558 0-1.044-.018-1.476-.144v5.184zm.864-11.358v5.418c.414.144.954.18 1.548.18 2.178 0 3.474-1.044 3.474-2.97 0-1.908-1.386-2.772-3.312-2.772-.792 0-1.386.072-1.71.144zm8.214014-.774h.864v7.326c0 3.078 1.44 4.266 3.222 4.266 2.016 0 3.402-1.296 3.402-4.266v-7.326h.864v7.236c0 3.726-2.016 5.094-4.302 5.094-2.124 0-4.05-1.242-4.05-4.95zm11.310014 12.114v-11.934c.684-.162 1.548-.27 2.448-.27 1.512 0 2.502.324 3.168 1.008.504.486.756 1.134.756 1.98 0 1.242-.882 2.286-2.088 2.7v.054c1.026.234 2.574 1.116 2.574 3.096 0 .99-.36 1.746-.9 2.322-.81.81-2.124 1.152-3.852 1.152-.918 0-1.62-.072-2.106-.108zm.864-11.358v4.572h1.764c1.764 0 2.862-1.044 2.862-2.376 0-1.71-1.296-2.322-3.096-2.322-.792 0-1.26.054-1.53.126zm0 5.274v5.382c.36.072.846.09 1.494.09 1.854 0 3.6-.666 3.6-2.736 0-1.908-1.638-2.736-3.564-2.736zm8.268014 6.102v-12.132h.864v11.412h5.4v.72zm8.106014-12.132h.864v12.132h-.864zm11.814014 11.016.252.684c-.612.306-1.782.612-3.276.612-2.934 0-5.742-1.872-5.742-6.174 0-3.6 2.322-6.336 6.156-6.336 1.548 0 2.448.342 2.808.54l-.27.72c-.612-.306-1.494-.522-2.52-.522-3.276 0-5.274 2.124-5.274 5.616 0 3.294 1.872 5.418 5.13 5.418 1.026 0 2.034-.216 2.736-.558z" fill="#252525" fill-rule="evenodd"/></svg>