<svg height="19" viewBox="0 0 250 19" width="250" xmlns="http://www.w3.org/2000/svg"><path d="m8.756 13.134h-5.852l-1.826 5.192h-1.078l5.368-14.828h1.012l5.324 14.828h-1.078zm-5.522-.88h5.214l-1.804-4.95c-.374-1.034-.572-1.782-.77-2.618h-.066c-.198.858-.44 1.628-.77 2.574zm10.8038333 6.072v-14.608c.924-.22 2.178-.33 3.212-.33 1.936 0 3.168.418 4.004 1.254.638.594 1.034 1.584 1.034 2.618 0 2.002-1.188 3.278-2.904 3.872v.044c1.188.374 1.936 1.496 2.288 3.146.506 2.31.792 3.41 1.1 4.004h-1.078c-.242-.44-.55-1.738-.946-3.608-.462-2.134-1.386-3.102-3.344-3.19h-2.31v6.798zm1.056-13.882v6.226h2.354c2.288 0 3.784-1.276 3.784-3.234 0-2.266-1.672-3.19-4.004-3.19-1.012 0-1.76.11-2.134.198zm20.0218334 12.518.308.836c-.748.374-2.178.748-4.004.748-3.586 0-7.018-2.288-7.018-7.546 0-4.4 2.838-7.744 7.524-7.744 1.892 0 2.992.418 3.432.66l-.33.88c-.748-.374-1.826-.638-3.08-.638-4.004 0-6.446 2.596-6.446 6.864 0 4.026 2.288 6.622 6.27 6.622 1.254 0 2.486-.264 3.344-.682zm2.8398333-13.464h1.056v6.534h8.184v-6.534h1.056v14.828h-1.056v-7.414h-8.184v7.414h-1.056zm20.8798333 6.578v.88h-5.918v6.49h6.622v.88h-7.678v-14.828h7.326v.88h-6.27v5.698zm9.0218333-6.842c3.74 0 6.468 2.926 6.468 7.524 0 5.236-3.212 7.81-6.6439999 7.81-3.6520001 0-6.49-2.882-6.49-7.524 0-4.862 2.9479999-7.81 6.6659999-7.81zm-.066.88c-3.762 0-5.5 3.432-5.5 6.908 0 3.344 1.936 6.666 5.456 6.666s5.478-3.19 5.478-6.864c0-3.146-1.716-6.71-5.434-6.71zm9.1758334 14.212v-14.828h1.056v13.948h6.6v.88zm14.7418333-15.092c3.74 0 6.468 2.926 6.468 7.524 0 5.236-3.212 7.81-6.644 7.81-3.652 0-6.49-2.882-6.49-7.524 0-4.862 2.948-7.81 6.666-7.81zm-.066.88c-3.762 0-5.5 3.432-5.5 6.908 0 3.344 1.936 6.666 5.456 6.666s5.478-3.19 5.478-6.864c0-3.146-1.716-6.71-5.434-6.71zm19.8238337 6.864v6.688c-.748.308-2.31.814-4.334.814-1.958 0-3.74-.506-5.236-1.936-1.232-1.21-2.0460004-3.212-2.0460004-5.588 0-4.114 2.7060004-7.612 7.7440004-7.612 1.584 0 2.882.374 3.454.66l-.352.88c-.77-.374-1.738-.638-3.168-.638-4.07 0-6.578 2.64-6.578 6.666 0 4.18 2.442 6.666 6.358 6.666 1.562 0 2.552-.22 3.102-.506v-5.236h-3.432v-.858zm3.125833-7.48h1.056v14.828h-1.056zm14.433833 13.464.308.836c-.748.374-2.178.748-4.004.748-3.586 0-7.018-2.288-7.018-7.546 0-4.4 2.838-7.744 7.524-7.744 1.892 0 2.992.418 3.432.66l-.33.88c-.748-.374-1.826-.638-3.08-.638-4.004 0-6.446 2.596-6.446 6.864 0 4.026 2.288 6.622 6.27 6.622 1.254 0 2.486-.264 3.344-.682zm2.839834 1.364v-14.828h1.056v7.502h.066c.44-.572.88-1.078 1.276-1.54l5.258-5.962h1.276l-5.632 6.292 6.16 8.536h-1.254l-5.632-7.81-1.518 1.672v6.138zm15.313833 0h-1.056v-6.424l-4.708-8.404h1.166l2.442 4.422c.638 1.166 1.166 2.134 1.694 3.19h.044c.44-.99 1.056-2.024 1.716-3.212l2.53-4.4h1.166l-4.994 8.426zm.946-17.93h1.606l-2.882 2.486h-.88zm18.087667 14.124h-4.246l-1.056 3.806h-3.476l4.532-14.828h4.4l4.598 14.828h-3.608zm-3.762-2.508h3.278l-.924-3.146c-.264-.88-.528-1.98-.748-2.86h-.044c-.22.88-.44 2.002-.682 2.86zm11.570014 6.314v-12.012h-3.982v-2.816h11.396v2.816h-4.048v12.012zm9.238013 0v-14.828h3.366v12.012h5.896v2.816zm19.116014-3.806h-4.246l-1.056 3.806h-3.476l4.532-14.828h4.4l4.598 14.828h-3.608zm-3.762-2.508h3.278l-.924-3.146c-.264-.88-.528-1.98-.748-2.86h-.044c-.22.88-.44 2.002-.682 2.86zm9.964014 5.632.682-2.772c.902.462 2.288.924 3.718.924 1.54 0 2.354-.638 2.354-1.606 0-.924-.704-1.452-2.486-2.09-2.464-.858-4.07-2.222-4.07-4.378 0-2.53 2.112-4.466 5.61-4.466 1.672 0 2.904.352 3.784.748l-.748 2.706c-.594-.286-1.65-.704-3.102-.704s-2.156.66-2.156 1.43c0 .946.836 1.364 2.75 2.09 2.618.968 3.85 2.332 3.85 4.422 0 2.486-1.914 4.598-5.984 4.598-1.694 0-3.366-.44-4.202-.902zm27.364028-2.354.506 2.618c-.616.308-2.002.638-3.806.638-5.126 0-7.766-3.19-7.766-7.414 0-5.06 3.608-7.876 8.096-7.876 1.738 0 3.058.352 3.652.66l-.682 2.662c-.682-.286-1.628-.55-2.816-.55-2.662 0-4.73 1.606-4.73 4.906 0 2.97 1.76 4.84 4.752 4.84 1.012 0 2.134-.22 2.794-.484zm-2.618-12.606h-2.53l-2.222-2.684h2.354l1.122 1.364h.044l1.1-1.364h2.332zm5.366014 15.642v-14.63c1.078-.176 2.684-.308 4.466-.308 2.2 0 3.74.33 4.796 1.166.88.704 1.364 1.738 1.364 3.102 0 1.892-1.342 3.19-2.618 3.652v.066c1.034.418 1.606 1.408 1.98 2.772.462 1.672.924 3.608 1.21 4.18h-3.432c-.242-.418-.594-1.628-1.034-3.454-.396-1.848-1.034-2.354-2.398-2.376h-1.012v5.83zm3.322-12.342v4.092h1.32c1.672 0 2.662-.836 2.662-2.134 0-1.364-.924-2.046-2.464-2.068-.814 0-1.276.066-1.518.11z" fill="#252525" fill-rule="evenodd"/></svg>