<?xml version="1.0" encoding="utf-8"?>
<!-- Generator: Adobe Illustrator 15.0.0, SVG Export Plug-In  -->
<!DOCTYPE svg PUBLIC "-//W3C//DTD SVG 1.1 Tiny//EN" "http://www.w3.org/Graphics/SVG/1.1/DTD/svg11-tiny.dtd" [
	<!ENTITY ns_flows "http://ns.adobe.com/Flows/1.0/">
]>
<svg version="1.1" baseProfile="tiny"
	 xmlns="http://www.w3.org/2000/svg" xmlns:xlink="http://www.w3.org/1999/xlink" xmlns:a="http://ns.adobe.com/AdobeSVGViewerExtensions/3.0/"
	 x="0px" y="0px" width="366px" height="209px" viewBox="-43.655 -14.686 366 209" overflow="visible" xml:space="preserve">
<defs>
</defs>
<line fill="none" stroke="#419165" stroke-linecap="square" stroke-miterlimit="10" x1="44.845" y1="58.692" x2="58.354" y2="72.202"/>
<line fill="none" stroke="#419165" stroke-linecap="square" stroke-miterlimit="10" x1="58.845" y1="58.692" x2="45.336" y2="72.202"/>
<path fill="none" stroke="#FFFFFF" stroke-linecap="square" stroke-miterlimit="10" d="M92.764,48.611l30.174,30.174 M92.764,78.773
	L122.938,48.6"/>
<polyline fill="none" stroke="#FFFFFF" stroke-miterlimit="10" points="43.63,103.314 71.914,131.598 43.63,159.882 "/>
<path fill="none" stroke="#3D895E" stroke-miterlimit="10" d="M190.602,111.386h-26.93V64.416h37.963V99.92L190.602,111.386
	L190.602,111.386L190.602,111.386z M190.602,111.386"/>
<path fill="none" stroke="#3D895E" stroke-miterlimit="10" d="M189.21,83.123l-6.557,6.542l-6.559-6.542 M182.654,89.666V69.923
	 M173.312,90.708h18.683"/>
<path fill="none" stroke="#3D895E" stroke-miterlimit="10" d="M241.602,111.386h-26.93V64.416h37.963V99.92L241.602,111.386
	L241.602,111.386L241.602,111.386z M241.602,111.386"/>
<path fill="none" stroke="#3D895E" stroke-miterlimit="10" d="M240.21,83.123l-6.557,6.543l-6.559-6.543 M233.654,89.666V69.922
	 M224.312,90.708h18.683"/>
<polyline fill="none" stroke="#FFFFFF" stroke-miterlimit="10" points="122.17,159.882 93.886,131.598 122.17,103.314 "/>
<path fill="#3D895E" d="M265.139,158.678v0.044c-0.001,1.298-0.228,2.521-0.642,3.66l9.472,3.447
	c0.81-2.221,1.249-4.623,1.249-7.107v-0.084L265.139,158.678z M262.612,151.816c0.801,0.946,1.438,2.03,1.872,3.207l9.458-3.484
	c-0.847-2.3-2.086-4.402-3.634-6.232L262.612,151.816z M256.268,148.174c1.251,0.215,2.422,0.646,3.485,1.257l5.02-8.741
	c-2.065-1.187-4.36-2.03-6.797-2.449L256.268,148.174z M249.063,149.462c1.061-0.616,2.229-1.055,3.479-1.276l-1.768-9.924
	c-2.432,0.434-4.723,1.29-6.781,2.489L249.063,149.462z M244.367,155.083c0.427-1.181,1.057-2.268,1.853-3.219l-7.734-6.465
	c-1.536,1.839-2.764,3.95-3.598,6.256L244.367,155.083z M244.38,162.401c-0.415-1.137-0.645-2.359-0.647-3.656l-10.079,0.02
	c0.005,2.482,0.449,4.883,1.263,7.103L244.38,162.401z M249.099,168.002c-1.083-0.625-2.051-1.438-2.854-2.391l-7.708,6.494
	c1.554,1.845,3.421,3.412,5.525,4.627L249.099,168.002z M256.309,169.262c-0.605,0.106-1.229,0.162-1.873,0.162
	c-0.637,0-1.255-0.055-1.854-0.159l-1.729,9.931c1.167,0.203,2.364,0.309,3.582,0.309c1.23,0,2.441-0.108,3.62-0.315
	L256.309,169.262z M262.639,165.597c-0.802,0.955-1.769,1.77-2.85,2.396l5.053,8.722c2.103-1.218,3.966-2.79,5.517-4.637
	L262.639,165.597z"/>
<polygon fill="none" points="13.845,136.47 13.845,105.188 3.547,121.01 "/>
<polygon fill="#419165" points="3.547,121.01 13.845,105.188 13.845,103.354 2.35,121.017 13.845,138.274 13.845,136.47 "/>
<polygon fill="none" points="13.845,49.188 13.845,80.471 24.143,65.011 "/>
<polygon fill="#419165" points="13.845,47.354 13.845,49.188 24.143,65.011 13.845,80.471 13.845,82.274 25.34,65.018 "/>
<polygon fill="#F4F6F3" points="163.672,111.386 190.602,111.386 201.635,99.92 201.635,64.416 163.672,64.416 "/>
<polygon fill="#3D895E" points="189.841,111.814 201.845,99.146 189.841,99.146 "/>
<polygon fill="#E2E8E2" points="214.672,111.386 241.602,111.386 252.635,99.92 252.635,64.416 214.672,64.416 "/>
<g>
	<polygon fill="none" points="13.845,136.47 13.845,105.188 3.547,121.01 	"/>
	<polygon fill="#419165" points="3.547,121.01 13.845,105.188 13.845,103.354 2.35,121.017 13.845,138.274 13.845,136.47 	"/>
</g>
<g>
	<polygon fill="none" points="13.845,49.188 13.845,80.471 24.143,65.011 	"/>
	<polygon fill="#419165" points="13.845,47.354 13.845,49.188 24.143,65.011 13.845,80.471 13.845,82.274 25.34,65.018 	"/>
</g>
<g>
	
		<line fill="none" stroke="#419165" stroke-linecap="square" stroke-miterlimit="10" x1="44.845" y1="58.692" x2="58.354" y2="72.202"/>
	
		<line fill="none" stroke="#419165" stroke-linecap="square" stroke-miterlimit="10" x1="58.845" y1="58.692" x2="45.336" y2="72.202"/>
</g>
<g id="XMLID_12_">
	<path fill="none" stroke="#FFFFFF" stroke-linecap="square" stroke-miterlimit="10" d="M92.764,48.611l30.174,30.174
		 M92.764,78.773L122.938,48.6"/>
</g>
<g id="XMLID_11_">
	<polyline fill="none" stroke="#FFFFFF" stroke-miterlimit="10" points="43.63,103.314 71.914,131.598 43.63,159.882 	"/>
</g>
<g>
	<path fill="none" stroke="#3D895E" stroke-miterlimit="10" d="M190.602,111.386h-26.93V64.416h37.963V99.92L190.602,111.386
		L190.602,111.386L190.602,111.386z M190.602,111.386"/>
	<path fill="none" stroke="#3D895E" stroke-miterlimit="10" d="M189.21,83.123l-6.557,6.542l-6.559-6.542 M182.654,89.666V69.923
		 M173.312,90.708h18.683"/>
</g>
<polygon fill="#F4F6F3" points="163.672,111.386 190.602,111.386 201.635,99.92 201.635,64.416 163.672,64.416 "/>
<polygon fill="#3D895E" points="189.841,111.814 201.845,99.146 189.841,99.146 "/>
<g id="XMLID_7_">
	<path fill="none" stroke="#3D895E" stroke-miterlimit="10" d="M241.602,111.386h-26.93V64.416h37.963V99.92L241.602,111.386
		L241.602,111.386L241.602,111.386z M241.602,111.386"/>
	<path fill="none" stroke="#3D895E" stroke-miterlimit="10" d="M240.21,83.123l-6.557,6.543l-6.559-6.543 M233.654,89.666V69.922
		 M224.312,90.708h18.683"/>
</g>
<polygon fill="#E2E8E2" points="214.672,111.386 241.602,111.386 252.635,99.92 252.635,64.416 214.672,64.416 "/>
<polygon fill="#3D895E" points="240.841,111.814 252.845,99.146 240.841,99.146 "/>
<g>
	<polyline fill="none" stroke="#FFFFFF" stroke-miterlimit="10" points="122.17,159.882 93.886,131.598 122.17,103.314 	"/>
</g>
<g id="XMLID_5_">
	<path fill="#3D895E" d="M265.139,158.678v0.044c-0.001,1.298-0.228,2.522-0.642,3.66l9.473,3.447
		c0.809-2.221,1.249-4.623,1.248-7.107v-0.084L265.139,158.678z M262.613,151.816c0.8,0.945,1.438,2.03,1.871,3.207l9.458-3.484
		c-0.847-2.3-2.086-4.403-3.633-6.233L262.613,151.816z M256.268,148.174c1.251,0.215,2.422,0.646,3.486,1.257l5.02-8.741
		c-2.066-1.187-4.361-2.031-6.798-2.449L256.268,148.174z M249.063,149.461c1.061-0.615,2.229-1.054,3.478-1.276l-1.767-9.924
		c-2.433,0.434-4.723,1.29-6.781,2.489L249.063,149.461z M244.366,155.083c0.428-1.181,1.058-2.268,1.853-3.219l-7.733-6.466
		c-1.537,1.839-2.765,3.951-3.599,6.257L244.366,155.083z M244.38,162.401c-0.415-1.137-0.645-2.359-0.647-3.656l-10.08,0.02
		c0.005,2.482,0.449,4.883,1.263,7.103L244.38,162.401z M249.099,168.002c-1.083-0.625-2.051-1.437-2.854-2.391l-7.709,6.495
		c1.554,1.844,3.422,3.412,5.526,4.627L249.099,168.002z M256.309,169.262c-0.605,0.106-1.229,0.162-1.873,0.162
		c-0.637,0-1.255-0.054-1.854-0.158l-1.729,9.931c1.166,0.203,2.364,0.309,3.582,0.309c1.23,0,2.441-0.108,3.62-0.315
		L256.309,169.262z M262.639,165.597c-0.802,0.955-1.769,1.77-2.85,2.396l5.053,8.723c2.103-1.219,3.967-2.791,5.518-4.638
		L262.639,165.597z"/>
</g>
<g>
	<path fill-rule="evenodd" d="M8.756,13.134l1.87,5.192h1.078L6.38,3.498H5.368L0,18.326h1.078l1.826-5.192H8.756L8.756,13.134z
		 M3.234,12.254L5.038,7.26c0.33-0.946,0.572-1.716,0.77-2.574h0.066C6.072,5.522,6.27,6.27,6.644,7.304l1.804,4.95H3.234
		L3.234,12.254z M14.038,18.326h1.056v-6.798h2.31c1.958,0.088,2.882,1.056,3.344,3.19c0.396,1.87,0.704,3.168,0.946,3.608h1.078
		c-0.308-0.594-0.594-1.694-1.1-4.004c-0.352-1.65-1.1-2.772-2.288-3.146v-0.044c1.716-0.594,2.904-1.87,2.904-3.872
		c0-1.034-0.396-2.024-1.034-2.618c-0.836-0.836-2.068-1.254-4.004-1.254c-1.034,0-2.288,0.11-3.212,0.33V18.326L14.038,18.326z
		 M15.094,4.444c0.374-0.088,1.122-0.198,2.134-0.198c2.332,0,4.004,0.924,4.004,3.19c0,1.958-1.496,3.234-3.784,3.234h-2.354V4.444
		L15.094,4.444z M35.116,16.962c-0.858,0.418-2.09,0.682-3.344,0.682c-3.982,0-6.27-2.596-6.27-6.622
		c0-4.268,2.442-6.864,6.446-6.864c1.254,0,2.332,0.264,3.08,0.638l0.33-0.88c-0.44-0.242-1.54-0.66-3.432-0.66
		c-4.686,0-7.524,3.344-7.524,7.744c0,5.258,3.432,7.546,7.018,7.546c1.826,0,3.256-0.374,4.004-0.748L35.116,16.962L35.116,16.962z
		 M37.956,3.498v14.828h1.056v-7.414h8.184v7.414h1.056V3.498h-1.056v6.534h-8.184V3.498H37.956L37.956,3.498z M58.835,10.076
		h-5.918V4.378h6.27v-0.88h-7.326v14.828h7.678v-0.88h-6.622v-6.49h5.918V10.076L58.835,10.076z M67.857,3.234
		c-3.718,0-6.666,2.948-6.666,7.81c0,4.642,2.838,7.524,6.49,7.524c3.432,0,6.644-2.574,6.644-7.81
		C74.325,6.16,71.597,3.234,67.857,3.234L67.857,3.234L67.857,3.234z M67.791,4.114c3.718,0,5.434,3.564,5.434,6.71
		c0,3.674-1.958,6.864-5.478,6.864s-5.456-3.322-5.456-6.666C62.291,7.546,64.029,4.114,67.791,4.114L67.791,4.114L67.791,4.114z
		 M76.967,18.326h7.656v-0.88h-6.6V3.498h-1.056V18.326L76.967,18.326z M91.708,3.234c-3.718,0-6.666,2.948-6.666,7.81
		c0,4.642,2.838,7.524,6.49,7.524c3.432,0,6.644-2.574,6.644-7.81C98.177,6.16,95.449,3.234,91.708,3.234L91.708,3.234L91.708,3.234
		z M91.643,4.114c3.718,0,5.434,3.564,5.434,6.71c0,3.674-1.958,6.864-5.478,6.864s-5.456-3.322-5.456-6.666
		C86.143,7.546,87.881,4.114,91.643,4.114L91.643,4.114L91.643,4.114z M111.466,10.978h-4.488v0.858h3.432v5.236
		c-0.55,0.286-1.54,0.506-3.102,0.506c-3.916,0-6.358-2.486-6.358-6.666c0-4.026,2.508-6.666,6.578-6.666
		c1.43,0,2.398,0.264,3.168,0.638l0.352-0.88c-0.572-0.286-1.87-0.66-3.454-0.66c-5.038,0-7.744,3.498-7.744,7.612
		c0,2.376,0.814,4.378,2.046,5.588c1.496,1.43,3.278,1.936,5.236,1.936c2.024,0,3.586-0.506,4.334-0.814V10.978L111.466,10.978z
		 M114.592,3.498v14.828h1.056V3.498H114.592L114.592,3.498z M129.026,16.962c-0.858,0.418-2.09,0.682-3.344,0.682
		c-3.982,0-6.27-2.596-6.27-6.622c0-4.268,2.442-6.864,6.446-6.864c1.254,0,2.332,0.264,3.08,0.638l0.33-0.88
		c-0.44-0.242-1.54-0.66-3.432-0.66c-4.687,0-7.524,3.344-7.524,7.744c0,5.258,3.432,7.546,7.018,7.546
		c1.826,0,3.256-0.374,4.004-0.748L129.026,16.962L129.026,16.962z M131.866,18.326h1.056v-6.138l1.518-1.672l5.632,7.81h1.254
		l-6.16-8.536l5.632-6.292h-1.276l-5.258,5.962c-0.396,0.462-0.836,0.968-1.276,1.54h-0.066V3.498h-1.056V18.326L131.866,18.326z
		 M147.18,18.326v-6.402l4.994-8.426h-1.166l-2.53,4.4c-0.66,1.188-1.276,2.222-1.716,3.212h-0.044
		c-0.528-1.056-1.057-2.024-1.694-3.19l-2.442-4.422h-1.166l4.708,8.404v6.424H147.18L147.18,18.326z M148.125,0.396l-2.155,2.486
		h0.88l2.882-2.486H148.125L148.125,0.396z M166.213,14.52l1.145,3.806h3.607l-4.598-14.828h-4.4l-4.532,14.828h3.477l1.056-3.806
		H166.213L166.213,14.52z M162.452,12.012l0.88-3.146c0.242-0.858,0.462-1.98,0.682-2.86h0.044c0.221,0.88,0.484,1.98,0.748,2.86
		l0.924,3.146H162.452L162.452,12.012z M174.022,18.326h3.365V6.314h4.048V3.498H170.04v2.816h3.982V18.326L174.022,18.326z
		 M183.259,18.326h9.263V15.51h-5.896V3.498h-3.366V18.326L183.259,18.326z M202.375,14.52l1.145,3.806h3.607L202.53,3.498h-4.4
		l-4.532,14.828h3.477l1.056-3.806H202.375L202.375,14.52z M198.614,12.012l0.88-3.146c0.242-0.858,0.462-1.98,0.682-2.86h0.044
		c0.221,0.88,0.484,1.98,0.748,2.86l0.924,3.146H198.614L198.614,12.012z M208.578,17.644c0.836,0.462,2.508,0.902,4.202,0.902
		c4.069,0,5.983-2.112,5.983-4.598c0-2.09-1.231-3.454-3.85-4.422c-1.914-0.726-2.75-1.144-2.75-2.09c0-0.77,0.704-1.43,2.156-1.43
		s2.508,0.418,3.102,0.704l0.748-2.706c-0.88-0.396-2.112-0.748-3.784-0.748c-3.498,0-5.609,1.936-5.609,4.466
		c0,2.156,1.605,3.52,4.069,4.378c1.782,0.638,2.486,1.166,2.486,2.09c0,0.968-0.814,1.606-2.354,1.606
		c-1.43,0-2.815-0.462-3.718-0.924L208.578,17.644L208.578,17.644z M235.942,15.29c-0.66,0.264-1.782,0.484-2.794,0.484
		c-2.992,0-4.752-1.87-4.752-4.84c0-3.3,2.067-4.906,4.729-4.906c1.188,0,2.134,0.264,2.816,0.55l0.682-2.662
		c-0.594-0.308-1.914-0.66-3.652-0.66c-4.487,0-8.096,2.816-8.096,7.876c0,4.224,2.64,7.414,7.766,7.414
		c1.805,0,3.19-0.33,3.807-0.638L235.942,15.29L235.942,15.29z M233.324,2.684l2.2-2.684h-2.332l-1.101,1.364h-0.044L230.925,0
		h-2.354l2.222,2.684H233.324L233.324,2.684z M247.511,9.328h-5.456v-3.08h5.786v-2.75h-9.151v14.828h9.46v-2.75h-6.095v-3.52h5.456
		V9.328L247.511,9.328z M260.864,15.29c-0.66,0.264-1.782,0.484-2.794,0.484c-2.992,0-4.752-1.87-4.752-4.84
		c0-3.3,2.067-4.906,4.729-4.906c1.188,0,2.135,0.264,2.816,0.55l0.682-2.662c-0.594-0.308-1.914-0.66-3.651-0.66
		c-4.488,0-8.097,2.816-8.097,7.876c0,4.224,2.641,7.414,7.767,7.414c1.804,0,3.189-0.33,3.806-0.638L260.864,15.29L260.864,15.29z
		 M263.612,3.498v14.828h3.366v-6.204h5.521v6.204h3.344V3.498H272.5v5.698h-5.521V3.498H263.612L263.612,3.498z M263.612,3.498"/>
</g>
<g>
	<g>
		<path fill="#409266" d="M269.775,44.387c-0.885,0.551-1.93,0.869-3.049,0.869c-3.189,0-5.775-2.586-5.775-5.773
			c0-3.191,2.586-5.777,5.775-5.777s5.775,2.586,5.775,5.777c0,1.119-0.318,2.164-0.87,3.049l3.825,3.824
			c0.514,0.514,0.518,1.342,0.002,1.857c-0.514,0.514-1.34,0.518-1.859-0.002L269.775,44.387z"/>
		<circle fill="#FFFFFF" cx="266.726" cy="39.481" r="4.726"/>
	</g>
</g>
</svg>
